<?xml version="1.0" standalone="no"?>
<!DOCTYPE svg PUBLIC "-//W3C//DTD SVG 20010904//EN"
 "http://www.w3.org/TR/2001/REC-SVG-20010904/DTD/svg10.dtd">
<svg version="1.0" xmlns="http://www.w3.org/2000/svg"
 width="920.000000pt" height="920.000000pt" viewBox="0 0 920.000000 920.000000"
 preserveAspectRatio="xMidYMid meet">
<metadata>
Created by potrace 1.11, written by Peter Selinger 2001-2013
</metadata>
<g transform="translate(0.000000,920.000000) scale(0.100000,-0.100000)"
fill="#000000" stroke="none">
<path d="M4235 7964 c-1057 -107 -2003 -703 -2570 -1619 -85 -138 -229 -432
-288 -590 -106 -286 -178 -611 -204 -925 -11 -134 -7 -477 7 -606 63 -584 255
-1108 578 -1579 414 -605 988 -1046 1689 -1300 105 -38 262 -85 286 -85 13 0
171 265 179 300 2 9 -39 24 -132 50 -538 148 -992 415 -1385 815 -567 576
-875 1326 -875 2128 0 291 27 516 91 767 265 1030 1038 1845 2059 2169 656
208 1406 178 2050 -81 996 -402 1712 -1294 1885 -2348 90 -555 28 -1118 -181
-1639 -360 -893 -1133 -1573 -2064 -1818 -74 -19 -136 -36 -138 -38 -2 -1 17
-36 41 -76 24 -41 65 -111 91 -156 27 -46 49 -83 50 -83 21 0 286 84 395 126
1040 395 1836 1293 2101 2368 143 580 130 1195 -36 1772 -152 529 -436 1017
-822 1417 -578 595 -1316 953 -2132 1032 -177 18 -499 17 -675 -1z"/>
<path d="M4274 7334 c-1211 -132 -2204 -1052 -2433 -2254 -47 -248 -58 -611
-26 -855 36 -276 113 -555 220 -797 54 -124 177 -337 266 -465 385 -546 960
-940 1606 -1100 78 -20 148 -33 156 -30 15 5 330 552 330 571 0 6 -70 153
-155 326 -445 901 -588 1190 -592 1190 -2 0 -33 -7 -68 -16 -86 -22 -257 -14
-348 16 -218 73 -392 233 -496 455 -174 374 -215 906 -89 1155 41 80 107 146
174 171 47 18 70 20 146 16 203 -11 442 -145 681 -382 242 -240 341 -404 390
-645 44 -220 -25 -465 -176 -623 l-70 -71 106 -181 c58 -99 124 -211 147 -250
22 -38 68 -117 103 -175 132 -223 283 -480 344 -587 36 -62 67 -113 70 -113 3
0 173 295 378 655 l373 654 -44 55 c-120 146 -136 383 -39 576 30 60 278 455
487 775 18 28 67 104 110 170 107 164 216 317 223 311 9 -9 -153 -326 -386
-756 -138 -256 -252 -470 -252 -474 0 -12 83 -47 91 -39 4 4 133 217 287 473
348 580 423 700 438 700 18 0 -54 -154 -345 -744 -139 -280 -250 -510 -249
-511 14 -9 80 -45 83 -45 1 0 28 44 58 98 64 114 62 110 202 362 314 568 435
774 435 744 0 -30 -61 -177 -213 -509 -30 -66 -77 -169 -105 -230 -27 -60 -69
-150 -92 -200 -38 -81 -59 -128 -128 -287 l-21 -47 33 -21 c45 -27 58 -25 76
13 23 47 457 892 493 957 75 139 130 231 134 226 6 -6 -48 -159 -114 -321
-130 -319 -165 -404 -280 -675 -158 -376 -185 -429 -255 -504 -118 -130 -223
-179 -386 -180 l-102 -1 -156 -325 c-86 -179 -179 -372 -206 -430 -28 -58 -68
-141 -88 -185 -21 -44 -87 -182 -148 -306 -60 -124 -113 -235 -116 -247 -8
-23 -7 -25 179 -342 167 -286 145 -259 202 -249 499 92 1008 357 1391 724 469
449 755 1017 843 1675 14 104 18 484 7 595 -53 514 -228 974 -524 1381 -128
175 -327 385 -494 520 -423 342 -918 549 -1460 609 -162 18 -439 18 -606 -1z"/>
<path d="M4496 1928 c-35 -73 -61 -136 -59 -140 7 -12 263 -10 263 2 0 14
-129 270 -135 270 -3 0 -34 -60 -69 -132z"/>
<path d="M4216 1345 c-87 -185 -92 -168 54 -184 163 -17 708 -6 729 15 3 2
-31 78 -75 167 l-79 162 -277 0 -276 0 -76 -160z"/>
</g>
</svg>
